<?xml version="1.0" standalone="no"?>
<!DOCTYPE svg PUBLIC "-//W3C//DTD SVG 20010904//EN"
 "http://www.w3.org/TR/2001/REC-SVG-20010904/DTD/svg10.dtd">
<svg version="1.0" xmlns="http://www.w3.org/2000/svg"
 width="228.000000pt" height="228.000000pt" viewBox="0 0 228.000000 228.000000"
 preserveAspectRatio="xMidYMid meet">
<metadata>
Created by potrace 1.14, written by Peter Selinger 2001-2017
</metadata>
<g transform="translate(0.000000,228.000000) scale(0.100000,-0.100000)"
fill="#000000" stroke="none">
<path d="M246 2258 c-26 -40 -73 -150 -99 -234 -58 -182 -61 -510 -8 -666 l18
-53 -37 -45 c-21 -25 -49 -68 -64 -97 -26 -52 -26 -55 -26 -266 0 -299 24
-431 97 -531 48 -66 63 -61 35 13 -4 10 7 7 33 -9 l38 -23 -5 28 -6 28 25 -31
c27 -36 74 -52 149 -52 l51 0 -4 33 -4 32 21 -25 c25 -30 120 -167 120 -174 0
-2 -15 -7 -32 -11 -159 -32 -276 -119 -209 -155 74 -39 361 32 385 96 4 11 -6
36 -27 68 -40 60 -67 111 -67 126 0 5 16 10 35 10 l35 0 -15 37 c-8 20 -14 37
-13 39 2 1 32 -15 68 -37 36 -21 73 -39 83 -39 17 0 17 2 3 22 -19 26 -21 47
-4 30 7 -7 18 -12 25 -12 11 0 10 6 -2 30 -18 34 -19 44 -5 35 6 -4 31 -48 56
-98 40 -80 45 -96 40 -135 -5 -37 -2 -46 19 -66 42 -39 126 -59 256 -60 125
-1 149 7 149 49 0 44 -82 88 -201 106 -92 14 -98 17 -131 65 -40 57 -36 65 22
43 75 -29 91 -25 50 12 -23 20 -28 28 -15 24 11 -4 28 -9 37 -12 24 -7 116 26
127 45 8 13 12 14 25 3 12 -10 23 -10 53 -1 50 16 133 58 156 78 16 15 16 17
-5 40 -19 21 -20 24 -5 19 39 -14 97 -20 97 -9 0 6 -8 13 -17 16 -10 3 -31 17
-48 31 l-30 25 62 -25 c73 -29 95 -31 128 -9 24 16 85 91 85 105 0 4 -10 10
-22 13 -21 7 -19 9 16 19 57 18 57 35 -1 39 l-48 3 56 17 c31 10 61 24 68 31
9 12 -3 15 -72 19 -85 6 -200 35 -191 50 3 4 35 8 72 8 37 0 85 5 107 11 22 6
60 14 85 19 134 25 290 100 290 139 0 5 9 11 20 14 19 5 20 13 19 89 -1 45 -5
90 -10 99 -6 13 5 30 52 72 53 49 59 59 49 77 -17 32 -61 24 -163 -30 -52 -28
-97 -50 -100 -50 -4 0 -7 8 -7 18 0 10 -15 33 -34 51 -25 24 -41 32 -62 29
-32 -3 -32 -1 -19 -124 9 -85 -6 -119 -63 -150 -20 -10 -49 -30 -64 -43 l-29
-23 -230 4 c-229 5 -230 5 -247 29 -27 39 -75 79 -109 91 l-31 11 33 41 c98
121 158 256 180 403 16 104 20 289 7 297 -4 2 -29 -22 -56 -55 -26 -33 -75
-81 -109 -105 l-62 -46 -39 49 c-154 188 -446 389 -680 469 -86 29 -92 30
-110 2z m479 -448 c3 -5 0 -18 -7 -29 -11 -18 -10 -24 8 -41 25 -25 71 -39
104 -30 24 7 24 7 -13 23 -37 16 -38 17 -21 41 l16 25 36 -18 c21 -11 50 -33
66 -50 l30 -31 -42 0 c-41 0 -73 -19 -84 -51 -4 -11 -11 -9 -29 8 -75 68 -199
49 -223 -35 -10 -35 -18 -39 -36 -17 -8 9 -9 30 -4 62 4 26 7 57 7 68 1 24 18
39 72 65 42 21 110 26 120 10z m244 -159 c46 -25 68 -122 35 -155 -20 -20 -73
-20 -102 0 -12 8 -29 28 -37 44 -16 30 -20 97 -7 116 16 24 59 22 111 -5z
m-230 1 c40 -20 71 -73 71 -120 0 -65 -68 -101 -135 -70 -27 12 -65 73 -65
103 0 10 -5 13 -11 9 -23 -14 1 50 27 74 30 26 67 28 113 4z m131 -189 c14
-10 45 -20 70 -23 l45 -6 -40 -12 c-22 -7 -74 -12 -115 -12 l-75 0 33 20 c18
11 35 27 38 35 8 19 14 19 44 -2z m218 -15 c16 -16 15 -49 -3 -72 -14 -18 -15
-18 -25 10 -11 29 -6 74 8 74 4 0 13 -5 20 -12z m-46 -82 c2 -24 -3 -33 -24
-45 -33 -19 -43 -11 -52 41 -6 33 -4 37 21 46 34 12 50 -1 55 -42z m-349 15
c12 -11 -13 -71 -30 -71 -45 0 -73 43 -47 71 16 18 56 18 77 0z m1531 4 c3
-10 -6 -23 -29 -38 -19 -12 -35 -27 -35 -33 0 -13 -76 -64 -96 -64 -24 0 -132
-60 -139 -78 -17 -38 -15 -53 10 -64 14 -6 25 -20 25 -30 0 -11 11 -23 25 -28
14 -5 25 -14 25 -20 0 -5 7 -10 15 -10 8 0 15 -3 15 -6 0 -14 -44 -44 -65 -44
-30 0 -65 36 -65 66 0 14 -12 41 -26 60 -24 31 -25 38 -15 61 7 15 12 69 12
125 0 75 3 98 13 98 16 0 43 -38 52 -74 3 -14 12 -26 20 -26 18 0 138 59 189
93 47 30 61 33 69 12z m-1416 -13 c9 -6 10 -19 4 -48 -4 -21 -11 -38 -15 -36
-4 1 -22 2 -39 2 -53 0 -62 11 -44 54 13 31 19 36 48 36 18 0 39 -4 46 -8z
m136 -8 c3 -9 6 -29 6 -44 0 -25 -5 -30 -34 -35 -18 -4 -44 -5 -57 -3 -21 3
-24 8 -21 38 4 56 8 60 56 60 31 0 46 -5 50 -16z m162 -30 c-3 -9 -6 -22 -6
-29 0 -7 -9 -23 -20 -36 l-20 -24 6 40 c4 22 11 46 17 53 14 17 30 15 23 -4z
m-61 -66 c-8 -37 -41 -78 -63 -78 -10 0 -13 7 -8 23 3 12 6 32 6 44 0 14 9 25
28 31 42 16 44 14 37 -20z m-384 12 c12 -7 19 -21 19 -42 0 -35 -14 -29 -43
21 -19 32 -11 39 24 21z m289 -43 c0 -48 -24 -77 -64 -77 -37 0 -46 12 -46 64
0 31 2 32 42 35 23 1 44 4 47 7 12 12 21 1 21 -29z m-154 15 c6 -4 14 -24 18
-44 7 -38 7 -38 -27 -38 -41 0 -74 25 -83 63 -6 26 -5 27 37 27 24 0 49 -4 55
-8z m1322 -44 c-2 -17 -15 -26 -58 -38 -30 -9 -54 -22 -53 -27 1 -6 -8 -11
-20 -10 -12 0 -29 -2 -37 -4 -9 -2 -16 4 -18 17 -2 17 10 26 65 52 83 39 126
42 121 10z m-1589 -52 c15 -8 42 -31 59 -50 71 -81 44 -230 -33 -180 -14 9
-25 19 -25 23 0 9 -27 37 -64 68 -22 19 -26 31 -26 72 0 74 30 97 89 67z m626
-17 c43 -38 65 -78 65 -117 0 -91 -94 -50 -154 67 -40 78 19 111 89 50z m973
9 c-4 -14 -104 -67 -126 -68 -8 0 -12 8 -10 17 2 10 27 26 58 39 63 26 83 29
78 12z m-14 -69 c-27 -30 -71 -51 -79 -38 -8 13 -6 16 37 39 47 26 66 26 42
-1z m-1249 -76 c45 -4 76 -1 111 11 26 9 50 14 53 11 3 -3 -7 -17 -21 -32 -48
-48 -131 -47 -235 4 -73 36 -88 57 -22 32 28 -11 80 -23 114 -26z m434 21 c11
-14 23 -45 27 -69 l6 -44 52 38 c50 37 172 101 193 101 6 0 13 -6 16 -14 6
-14 -31 -46 -53 -46 -5 0 -10 -6 -10 -14 0 -8 -12 -24 -26 -35 -24 -19 -25
-23 -15 -54 13 -39 13 -122 0 -157 -12 -31 -135 -100 -178 -100 -25 0 -32 5
-37 28 -3 15 -16 55 -27 89 -19 59 -20 64 -4 81 19 21 23 86 8 126 -13 31 -2
96 15 96 7 0 22 -12 33 -26z m-42 -858 c29 -10 56 -22 59 -28 5 -7 2 -8 -6 -3
-10 6 -12 3 -7 -14 4 -18 2 -21 -11 -16 -9 4 -45 14 -79 22 -36 8 -62 19 -60
26 3 16 30 37 42 33 6 -2 34 -11 62 -20z"/>
</g>
</svg>
